# xmcd CD database file
#
# Track frame offsets:
#	150
#	9415
#	38852
#	42867
#	53100
#	54664
#	79445
#	86552
#	101777
#	103010
#	129172
#	132010
#	157452
#	177277
#	199500
#	239080
#	251687
#	283980
#
# Disc length: 3904 seconds
#
# Revision: 2
# Processed by: cddbd v1.5.2PL0 Copyright (c) Steve Scherf et al.
# Submitted via: CDex 1.70beta2
#
DISCID=030f3e12
DTITLE=Mozdzer Leszek - Piano live
DYEAR=2004
DGENRE=Jazz
TTITLE0=Dobry wieczor Panstwu
TTITLE1=Sanctus
TTITLE2=Chwila dla Audiofila
TTITLE3=Easy Money
TTITLE4=8926 taktow
TTITLE5=Incognitor
TTITLE6=Spirit Of Jazz
TTITLE7=On Green Dolphin Street
TTITLE8=Dziewiaty trak
TTITLE9=No Message
TTITLE10=Kulisy preparacji
TTITLE11=So What
TTITLE12=Pub 700
TTITLE13=Wyzwania meteorologii
TTITLE14=Biali
TTITLE15=a-mol w D-dur
TTITLE16=Mazurek g-mol op. 24 nr 1
TTITLE17=Christus vincit
EXTD=YEAR: 2004
EXTT0=
EXTT1=
EXTT2=
EXTT3=
EXTT4=
EXTT5=
EXTT6=
EXTT7=
EXTT8=
EXTT9=
EXTT10=
EXTT11=
EXTT12=
EXTT13=
EXTT14=
EXTT15=
EXTT16=
EXTT17=
PLAYORDER=
